<?xml version="1.0" encoding="UTF-8" standalone="no"?>
<!-- Created with Inkscape (http://www.inkscape.org/) -->

<svg
   width="513"
   height="513"
   viewBox="0 0 513 513"
   version="1.1"
   id="svg1"
   xmlns:xlink="http://www.w3.org/1999/xlink"
   xmlns="http://www.w3.org/2000/svg"
   xmlns:svg="http://www.w3.org/2000/svg">
  <defs
     id="defs1">
    <pattern
       xlink:href="#shading5"
       preserveAspectRatio="xMidYMid"
       id="pattern234"
       patternTransform="matrix(0,-1.5,1.5,0,0,0)"
       x="0"
       y="0" />
    <pattern
       patternUnits="userSpaceOnUse"
       width="349.7577"
       height="27.6099"
       patternTransform="scale(0.2)"
       preserveAspectRatio="xMidYMid"
       id="shading5"
       style="fill:#000000">
      <path
         id="path37"
         style="stroke-width:0.487199;stroke-linecap:square;paint-order:markers fill stroke;stop-color:#000000"
         d="m 349.5257,0 h 0.232 v 27.6099 h -0.232 z m -18.396,0 h 1.0542 v 27.6099 h -1.0542 z m -18.3961,0 h 1.8765 v 27.6099 h -1.8765 z m -18.3961,0 h 2.6988 v 27.6099 h -2.6988 z m -18.3961,0 h 3.5211 v 27.6099 h -3.5211 z m -18.3961,0 h 4.3434 v 27.6099 h -4.3434 z m -18.3961,0 h 5.1658 v 27.6099 h -5.1658 z m -18.3961,0 h 5.9881 v 27.6099 h -5.9881 z M 202.357,0 h 6.8104 v 27.6099 h -6.8104 z m -18.3961,0 h 7.6327 v 27.6099 h -7.6327 z m -18.3961,0 h 8.455 v 27.6099 h -8.455 z m -18.3961,0 h 9.2773 v 27.6099 h -9.2773 z m -18.396,0 h 10.0995 v 27.6099 h -10.0995 z m -18.3961,0 h 10.9218 V 27.6099 H 110.3766 Z M 91.9805,0 h 11.7441 V 27.6099 H 91.9805 Z M 73.5844,0 H 86.1509 V 27.6099 H 73.5844 Z M 55.1883,0 H 68.5771 V 27.6099 H 55.1883 Z M 36.7922,0 H 51.0033 V 27.6099 H 36.7922 Z M 18.3961,0 H 33.4295 V 27.6099 H 18.3961 Z M 0,0 H 15.8557 V 27.6099 H 0 Z" />
    </pattern>
    <linearGradient
       id="linearGradient179">
      <stop
         style="stop-color:#f2b705;stop-opacity:1;"
         offset="0"
         id="stop179" />
      <stop
         style="stop-color:#d90429;stop-opacity:1;"
         offset="1"
         id="stop180" />
    </linearGradient>
    <pattern
       xlink:href="#noise"
       preserveAspectRatio="xMidYMid"
       id="pattern11"
       patternTransform="scale(1)" />
    <pattern
       xlink:href="#noise-5"
       preserveAspectRatio="xMidYMid"
       id="pattern11-4"
       patternTransform="translate(-0.5,-0.5)" />
    <linearGradient
       xlink:href="#linearGradient179"
       id="linearGradient180"
       x1="256"
       y1="8.5"
       x2="256"
       y2="503.5"
       gradientUnits="userSpaceOnUse" />
  </defs>
  <g
     id="layer3"
     transform="translate(1,1)">
    <circle
       style="display:inline;fill:#000000;fill-opacity:1;stroke:url(#pattern11-4)"
       id="path1-1"
       cx="255.5"
       cy="255.5"
       r="256" />
  </g>
  <g
     id="layer2"
     transform="translate(1,1)">
    <circle
       style="display:inline;fill:url(#linearGradient180);fill-opacity:1;stroke:url(#pattern11)"
       id="path1"
       cx="256"
       cy="256"
       r="247" />
    <circle
       style="display:inline;opacity:1;mix-blend-mode:normal;fill:url(#pattern234);stroke:none"
       id="path1-8"
       cx="256"
       cy="256"
       r="247" />
  </g>
  <g
     id="layer1"
     transform="translate(1,1)">
    <path
       d="m 103.68421,144.73157 v -6.32207 h 98.37142 v 6.32207 h -8.34514 q -14.16143,0 -20.4835,8.34513 -4.04613,5.05765 -4.04613,26.04693 v 112.27996 q 0,26.5527 -5.8163,42.23143 -2.78171,7.83937 -7.83937,15.17297 -4.80477,7.08072 -11.63261,12.64414 -6.82784,5.56342 -15.42585,8.8509 -8.34513,3.28748 -18.20756,3.28748 -8.09225,0 -14.414324,-2.27595 -6.32207,-2.02306 -10.621078,-5.56342 -4.299008,-3.79324 -6.827836,-8.34513 -2.275945,-4.80478 -2.275945,-9.86243 0,-9.60955 5.563422,-13.65567 5.563422,-4.04613 11.632609,-4.04613 2.528828,0 4.804773,0.50577 2.528829,0.50576 4.804769,2.78171 2.52883,2.27594 5.05766,6.82783 2.78171,4.55189 6.06919,12.39126 3.79324,9.10378 10.11531,9.10378 4.55189,0 8.34513,-5.56342 4.04613,-5.56342 4.04613,-19.72486 V 179.12363 q 0,-8.09225 -0.25288,-13.14991 -0.25289,-5.05765 -1.26442,-8.34513 -1.01153,-3.28748 -3.03459,-5.05766 -1.77018,-2.02306 -4.80478,-3.79324 -7.58648,-4.04612 -15.17296,-4.04612 z m 95.84258,-6.32207 h 62.20917 L 402.3388,310.87557 V 178.36498 q 0,-11.63261 -1.77018,-18.46045 -1.51729,-6.82783 -4.80477,-10.11531 -3.03459,-3.28747 -7.58648,-4.04612 -4.55189,-1.01153 -10.3682,-1.01153 h -8.09225 v -6.32207 h 80.16385 v 6.32207 h -8.34513 q -6.06919,0 -10.62108,1.01153 -4.55189,1.01153 -7.58648,4.55189 -3.0346,3.54036 -4.55189,10.11531 -1.5173,6.57495 -1.5173,17.95468 V 372.07321 H 411.1897 L 259.7129,186.96299 v 141.61438 q 0,11.88549 1.5173,18.71333 1.77018,6.57495 4.80477,9.86242 3.03459,3.28748 7.58648,4.04613 4.55189,0.75865 10.3682,0.75865 h 8.09225 v 6.32207 h -79.91097 v -6.32207 h 8.09225 q 6.06919,0 10.62108,-1.01153 4.55189,-1.01153 7.58648,-4.29901 3.28748,-3.54036 4.80478,-10.11531 1.51729,-6.57496 1.51729,-17.95468 V 168.75543 q -5.05765,-6.06919 -8.59801,-9.60954 -3.28748,-3.54036 -6.32207,-5.81631 -3.0346,-2.27594 -6.57495,-3.79324 -3.54036,-1.5173 -8.8509,-3.28748 -5.05766,-1.51729 -14.92009,-1.51729 z"
       id="text1"
       style="font-size:517.904px;line-height:1em;font-family:'Microsoft Himalaya';-inkscape-font-specification:'Microsoft Himalaya';fill:#fff6d5;stroke-width:2.69707;stroke-linecap:round;stroke-linejoin:round"
       aria-label="JN" />
  </g>
</svg>
